<svg xmlns="http://www.w3.org/2000/svg" width="900" height="650" viewBox="0 0 900 650">
  <style>
    .bg { fill: #ffffff; }
    .bb { fill: #f3f4f6; stroke: #111827; stroke-width: 2; }
    .railR { stroke: #ef4444; stroke-width: 3; }
    .railB { stroke: #3b82f6; stroke-width: 3; }
    .uno { fill: #0ea5e9; stroke: #0f172a; stroke-width: 2; }
    .unoHdr { fill: #111827; }
    .label { font: 700 16px system-ui, -apple-system, Segoe UI, Roboto, Arial; fill: #0f172a; }
    .text { font: 13px system-ui, -apple-system, Segoe UI, Roboto, Arial; fill: #0f172a; }
    .pin { font: 12px system-ui, -apple-system, Segoe UI, Roboto, Arial; fill: #0f172a; }
    .wireR { stroke: #ef4444; stroke-width: 5; fill: none; stroke-linecap: round; }
    .wireK { stroke: #111827; stroke-width: 5; fill: none; stroke-linecap: round; }
    .wireY { stroke: #f59e0b; stroke-width: 5; fill: none; stroke-linecap: round; }
    .wireG { stroke: #22c55e; stroke-width: 5; fill: none; stroke-linecap: round; }
    .module { fill: #eef2ff; stroke: #3730a3; stroke-width: 2; }
    .note { font: 12px system-ui, -apple-system, Segoe UI, Roboto, Arial; fill: #334155; }
    .legendBox { fill: #ffffff; stroke: #111827; stroke-width: 1.5; }
    .legendTitle { font: 700 12px system-ui, -apple-system, Segoe UI, Roboto, Arial; fill: #0f172a; }
    .legendText { font: 12px system-ui, -apple-system, Segoe UI, Roboto, Arial; fill: #334155; }
    .legendConn { stroke: #94a3b8; stroke-width: 3; fill: none; stroke-linecap: round; }
    .legendHole { fill: #ffffff; stroke: #94a3b8; stroke-width: 1; }
    .trench { fill: #ffffff; stroke: #111827; stroke-width: 1.5; opacity: 0.9; }
  </style>

  <rect class="bg" x="0" y="0" width="900" height="650"/>
  <text class="label" x="90" y="30">Breadboard view — HC-SR04 Ultrasonic (uno-hcsr04)</text>

  <!-- Breadboard -->
  <rect class="bb" x="70" y="40" width="760" height="260" rx="16"/>
  <line class="railR" x1="90" y1="70" x2="810" y2="70"/>
  <line class="railB" x1="90" y1="95" x2="810" y2="95"/>
  <line class="railR" x1="90" y1="250" x2="810" y2="250"/>
  <line class="railB" x1="90" y1="275" x2="810" y2="275"/>

  <!-- Center trench (no connection across) -->
  <rect class="trench" x="448" y="110" width="12" height="130" rx="6"/>

  <!-- Breadboard connectivity legend -->
  <g>
    <rect class="legendBox" x="610" y="115" width="200" height="150" rx="10"/>
    <text class="legendTitle" x="622" y="134">Как соединены отверстия</text>
    <text class="legendText" x="622" y="152">• Рейки питания —</text>
    <text class="legendText" x="632" y="166">по горизонтали</text>
    <text class="legendText" x="622" y="184">• Центр —</text>
    <text class="legendText" x="632" y="198">по горизонтали 5 шт.</text>
    <text class="legendText" x="622" y="216">• Через «канавку»</text>
    <text class="legendText" x="632" y="230">не соединяется</text>

    <circle class="legendHole" cx="742" cy="155" r="3"/>
    <circle class="legendHole" cx="754" cy="155" r="3"/>
    <circle class="legendHole" cx="766" cy="155" r="3"/>
    <circle class="legendHole" cx="778" cy="155" r="3"/>
    <circle class="legendHole" cx="790" cy="155" r="3"/>
    <path class="legendConn" d="M 742 155 L 790 155"/>

    <rect class="trench" x="792" y="188" width="8" height="45" rx="4"/>
    <circle class="legendHole" cx="778" cy="210" r="3"/>
    <circle class="legendHole" cx="806" cy="210" r="3"/>
  </g>

  <!-- HC-SR04 module -->
  <rect class="module" x="250" y="120" width="220" height="90" rx="12"/>
  <text class="text" x="270" y="150">HC-SR04</text>
  <text class="note" x="270" y="170">VCC  TRIG  ECHO  GND</text>

  <!-- UNO -->
  <rect class="uno" x="140" y="360" width="620" height="240" rx="18"/>
  <text class="label" x="170" y="395" fill="#0f172a">UNO R3 (simplified)</text>

  <rect class="unoHdr" x="170" y="420" width="560" height="22" rx="6"/>
  <text class="pin" x="180" y="458">5V</text>
  <text class="pin" x="230" y="458">GND</text>
  <text class="pin" x="295" y="458">D7</text>
  <text class="pin" x="345" y="458">D6</text>

  <!-- Wires -->
  <path class="wireR" d="M 190 442 C 190 330, 255 250, 270 150"/>
  <path class="wireK" d="M 245 442 C 245 330, 430 260, 455 195"/>
  <path class="wireY" d="M 305 442 C 305 330, 325 250, 345 170"/>
  <path class="wireG" d="M 355 442 C 355 330, 360 250, 395 170"/>

  <text class="note" x="470" y="520">Pins: D7=TRIG, D6=ECHO, plus 5V &amp; GND</text>
</svg>
